# xmcd
#
# Track frame offsets:
#	150
#	19393
#	38608
#	60176
#	72844
#	93581
#	107242
#	125668
#	141145
#	153297
#	171247
#	189492
#
# Disc length: 2695 seconds
#
# Revision: 0
# Processed by: cddbd v1.5.2PL0 Copyright (c) Steve Scherf et al.
# Submitted via: EasyCDDAExtractor 11.9.9.666
#
DISCID=a00a850c
DTITLE=Various Artist - Box Modão Sertanejo - CD 3
DYEAR=2010
DGENRE=Sertanejo
TTITLE0=Luan Santana - Pot-Pourri Apaixonado - A Loira Do Carro Branco 
TTITLE1=Jeann and Julio - Vida Pelo Avesso 
TTITLE2=João Neto and Frederico - Pot-Pourri Amargurado - Fio De Cabelo - Telefo
TTITLE2=ne Mudo 
TTITLE3=César and Alessandro - Ainda Ontem Chorei De Saudade
TTITLE4=Henrique and Diego - Evidências 
TTITLE5=Tato and Ed Reis - Oi, Paixão 
TTITLE6=Tom and Arnaldo - Você Não Sabe Amar 
TTITLE7=Álvaro and Daniel - Paixão Ou Loucura 
TTITLE8=Marcelinho De Lima and Camargo - Saco De Ouro
TTITLE9=Reginaldo Silva - De Igual Pra Igual 
TTITLE10=Mateus and Cristiano - Fiz Tudo Errado
TTITLE11=Diogo and Danilo - Vestido De Seda 
EXTD=
EXTT0=
EXTT1=
EXTT2=
EXTT3=
EXTT4=
EXTT5=
EXTT6=
EXTT7=
EXTT8=
EXTT9=
EXTT10=
EXTT11=
PLAYORDER=
